# xmcd
#
# Track frame offsets:
#	150
#	15864
#	40504
#	62484
#	82729
#	106729
#	122786
#	147266
#	161536
#	184642
#	199661
#	221964
#	237476
#	258294
#	273909
#
# Disc length: 3852 seconds
#
# Revision: 0
# Processed by: cddbd v1.5.2PL0 Copyright (c) Steve Scherf et al.
# Submitted via: EasyCDDAExtractor 10.0.3.1
#
DISCID=bf0f0a0f
DTITLE=B. B. King - Blues On The Bayou
DYEAR=1998
DGENRE=Blues
TTITLE0=Blues Boys Tune
TTITLE1=Bad Case Of Love
TTITLE2=I'll Survive
TTITLE3=Mean Ole' World
TTITLE4=Blues Man
TTITLE5=Broken Promise
TTITLE6=Darlin' What Happened
TTITLE7=Shake It Up And Go
TTITLE8=Blues We Like
TTITLE9=Good Man Gone Bad
TTITLE10=If I Lost You
TTITLE11=Tell Me Baby
TTITLE12=I Got Some Outside Help I Don't Need
TTITLE13=Blues In "G"
TTITLE14=If That Ain't It I Quit
EXTD=bar code 0 08811 18792 7 YEAR: 1998 ID3G: 0\n
EXTT0=
EXTT1=
EXTT2=
EXTT3=
EXTT4=
EXTT5=
EXTT6=
EXTT7=
EXTT8=
EXTT9=
EXTT10=
EXTT11=
EXTT12=
EXTT13=
EXTT14=
PLAYORDER=
